<svg width="1024" height="1024" viewBox="0 0 1024 1024" fill="none" xmlns="http://www.w3.org/2000/svg" role="img" aria-labelledby="title desc">
  <title id="title">PowerCulprit app icon</title>
  <desc id="desc">A clear battery-drain analyzer icon: battery, discharge chart, warning bolt, and magnifying lens.</desc>

  <defs>
    <linearGradient id="background" x1="160" y1="96" x2="864" y2="928" gradientUnits="userSpaceOnUse">
      <stop stop-color="#122033"/>
      <stop offset="0.52" stop-color="#0B1729"/>
      <stop offset="1" stop-color="#050B14"/>
    </linearGradient>

    <radialGradient id="ambientGlow" cx="0" cy="0" r="1" gradientUnits="userSpaceOnUse" gradientTransform="translate(505 418) rotate(90) scale(456 486)">
      <stop stop-color="#22D3EE" stop-opacity="0.22"/>
      <stop offset="0.42" stop-color="#22C55E" stop-opacity="0.11"/>
      <stop offset="1" stop-color="#020617" stop-opacity="0"/>
    </radialGradient>

    <linearGradient id="batteryBorder" x1="198" y1="270" x2="815" y2="702" gradientUnits="userSpaceOnUse">
      <stop stop-color="#86EFAC"/>
      <stop offset="0.47" stop-color="#22D3EE"/>
      <stop offset="1" stop-color="#F59E0B"/>
    </linearGradient>

    <linearGradient id="batteryFill" x1="286" y1="604" x2="753" y2="604" gradientUnits="userSpaceOnUse">
      <stop stop-color="#22C55E"/>
      <stop offset="0.52" stop-color="#0EA5E9"/>
      <stop offset="1" stop-color="#F97316"/>
    </linearGradient>

    <linearGradient id="chartLine" x1="291" y1="398" x2="716" y2="632" gradientUnits="userSpaceOnUse">
      <stop stop-color="#BBF7D0"/>
      <stop offset="0.5" stop-color="#67E8F9"/>
      <stop offset="1" stop-color="#FDBA74"/>
    </linearGradient>

    <linearGradient id="boltFill" x1="546" y1="336" x2="455" y2="664" gradientUnits="userSpaceOnUse">
      <stop stop-color="#FEF3C7"/>
      <stop offset="0.48" stop-color="#FACC15"/>
      <stop offset="1" stop-color="#FB923C"/>
    </linearGradient>

    <filter id="mainShadow" x="104" y="130" width="808" height="794" filterUnits="userSpaceOnUse" color-interpolation-filters="sRGB">
      <feDropShadow dx="0" dy="34" stdDeviation="34" flood-color="#000000" flood-opacity="0.32"/>
    </filter>

    <filter id="softGlow" x="246" y="346" width="516" height="342" filterUnits="userSpaceOnUse" color-interpolation-filters="sRGB">
      <feDropShadow dx="0" dy="0" stdDeviation="10" flood-color="#22D3EE" flood-opacity="0.45"/>
    </filter>

    <clipPath id="batteryInterior">
      <rect x="264" y="330" width="490" height="344" rx="54"/>
    </clipPath>
  </defs>

  <rect x="64" y="64" width="896" height="896" rx="224" fill="url(#background)"/>
  <rect x="64" y="64" width="896" height="896" rx="224" fill="url(#ambientGlow)"/>

  <path d="M202 210C277 150 382 123 514 126C648 129 760 176 832 258" stroke="#38BDF8" stroke-width="34" stroke-linecap="round" stroke-opacity="0.12"/>
  <path d="M184 786C279 852 384 882 512 880C644 878 760 831 842 744" stroke="#4ADE80" stroke-width="42" stroke-linecap="round" stroke-opacity="0.09"/>

  <g filter="url(#mainShadow)">
    <path d="M322 286H695C748 286 791 329 791 382V420H824C847 420 866 439 866 462V542C866 565 847 584 824 584H791V622C791 675 748 718 695 718H322C269 718 226 675 226 622V382C226 329 269 286 322 286Z" fill="#08111F" stroke="url(#batteryBorder)" stroke-width="36" stroke-linejoin="round"/>

    <g clip-path="url(#batteryInterior)">
      <path d="M264 636V580C318 586 365 574 411 537C456 500 501 484 556 505C617 528 674 523 754 462V674H264V636Z" fill="url(#batteryFill)" opacity="0.92"/>
      <path d="M264 423H754" stroke="#E2E8F0" stroke-width="16" stroke-opacity="0.07"/>
      <path d="M264 510H754" stroke="#E2E8F0" stroke-width="16" stroke-opacity="0.06"/>
      <path d="M264 597H754" stroke="#E2E8F0" stroke-width="16" stroke-opacity="0.06"/>
    </g>

    <g filter="url(#softGlow)">
      <path d="M298 398C345 439 387 469 434 486C487 505 532 499 577 531C620 562 650 608 714 632" stroke="#E0F2FE" stroke-width="24" stroke-linecap="round" stroke-linejoin="round"/>
      <path d="M298 398C345 439 387 469 434 486C487 505 532 499 577 531C620 562 650 608 714 632" stroke="url(#chartLine)" stroke-width="14" stroke-linecap="round" stroke-linejoin="round"/>
    </g>

    <circle cx="298" cy="398" r="24" fill="#22C55E" stroke="#DCFCE7" stroke-width="9"/>
    <circle cx="435" cy="486" r="21" fill="#38BDF8" stroke="#E0F2FE" stroke-width="8"/>
    <circle cx="576" cy="531" r="22" fill="#FBBF24" stroke="#FEF3C7" stroke-width="8"/>
    <circle cx="714" cy="632" r="29" fill="#F97316" stroke="#FFEDD5" stroke-width="10"/>

    <path d="M552 334L425 522H520L468 682L618 468H518L552 334Z" fill="url(#boltFill)" stroke="#FFF7ED" stroke-width="10" stroke-linejoin="round" stroke-opacity="0.72"/>
  </g>

  <g filter="url(#mainShadow)">
    <circle cx="700" cy="690" r="102" fill="#07111F" fill-opacity="0.93" stroke="#F8FAFC" stroke-width="30"/>
    <circle cx="700" cy="690" r="50" fill="#FB923C" fill-opacity="0.16" stroke="#FDBA74" stroke-width="14"/>
    <path d="M672 690H728" stroke="#FDBA74" stroke-width="16" stroke-linecap="round"/>
    <path d="M700 662V718" stroke="#FDBA74" stroke-width="16" stroke-linecap="round"/>
    <path d="M772 762L846 836" stroke="#F8FAFC" stroke-width="46" stroke-linecap="round"/>
    <path d="M772 762L846 836" stroke="#38BDF8" stroke-width="20" stroke-linecap="round" stroke-opacity="0.38"/>
  </g>

  <path d="M248 820H346" stroke="#4ADE80" stroke-width="28" stroke-linecap="round" stroke-opacity="0.55"/>
  <path d="M392 820H522" stroke="#38BDF8" stroke-width="28" stroke-linecap="round" stroke-opacity="0.43"/>
</svg>
